# xmcd CD database file
#
# Track frame offsets:
#	150
#	23211
#	41606
#	69825
#	91072
#
# Disc length: 1512 seconds
#
# Revision: 0
# Processed by: cddbd v1.5.1PL2 Copyright (c) Steve Scherf et al.
# Submitted via: CDex 1.51
#
DISCID=3105e605
DTITLE=Oriental New Edge - Oriental New Edge
DYEAR=2005
DGENRE=ポップ (一般)
TTITLE0=Question
TTITLE1=僕らの声が過去になる前に
TTITLE2=いつものホームで
TTITLE3=レイン
TTITLE4=いつものホームで（ラジオバージョン）
EXTD=YEAR: 2005/11/17
EXTT0=
EXTT1=
EXTT2=
EXTT3=
EXTT4=
PLAYORDER=
